<svg class="icon" viewBox="0 0 1024 1024" xmlns="http://www.w3.org/2000/svg" width="200" height="200"><path d="M674.62 802.58H184.18c-45.32 0-82.05-36.74-82.05-82.05V144.05c0-45.32 36.74-82.05 82.05-82.05h490.44c45.32 0 82.05 36.74 82.05 82.05v576.48c0 45.32-36.73 82.05-82.05 82.05z" fill="#12926E"/><path d="M839.82 962H349.38c-45.32 0-82.05-36.74-82.05-82.05V303.47c0-45.32 36.74-82.05 82.05-82.05h490.44c45.32 0 82.05 36.74 82.05 82.05v576.48c0 45.31-36.73 82.05-82.05 82.05z" fill="#39E2A0"/><path d="M737.12 550.79H635.5V448.38c0-22.59-18.32-40.91-40.91-40.91-22.59 0-40.91 18.32-40.91 40.91v102.41H452.07c-22.59 0-40.91 18.32-40.91 40.91 0 22.59 18.32 40.91 40.91 40.91h101.61v102.43c0 22.59 18.32 40.91 40.91 40.91 22.59 0 40.91-18.32 40.91-40.91V632.61h101.61c22.59 0 40.91-18.32 40.91-40.91.01-22.59-18.31-40.91-40.9-40.91z" fill="#FFF"/></svg>