<svg class="icon" viewBox="0 0 1024 1024" xmlns="http://www.w3.org/2000/svg" width="200" height="200"><path d="M810.667 149.333H213.333c-23.466 0-42.666 19.2-42.666 42.667v128c0 23.467 19.2 42.667 42.666 42.667h597.334c23.466 0 42.666-19.2 42.666-42.667V192c0-23.467-19.2-42.667-42.666-42.667zm0 256H213.333c-23.466 0-42.666 19.2-42.666 42.667v128c0 23.467 19.2 42.667 42.666 42.667h597.334c23.466 0 42.666-19.2 42.666-42.667V448c0-23.467-19.2-42.667-42.666-42.667zm0 256H213.333c-23.466 0-42.666 19.2-42.666 42.667v128c0 23.467 19.2 42.667 42.666 42.667h597.334c23.466 0 42.666-19.2 42.666-42.667V704c0-23.467-19.2-42.667-42.666-42.667z" fill="#D1C4E9"/><path d="M597.333 810.667a213.333 213.333 0 1 0 426.667 0 213.333 213.333 0 1 0-426.667 0Z" fill="#F44336"/><path d="m923.947 878.528-45.227 45.27-181.013-180.993 45.248-45.269z" fill="#FFF"/><path d="m742.805 923.947-45.269-45.227 180.992-181.013 45.27 45.248z" fill="#FFF"/></svg>