<svg xmlns="http://www.w3.org/2000/svg" class="icon" viewBox="0 0 1293 1024">
  <path fill="#FFCE00" d="M1067.844 152.55H601.552a101.7 101.7 0 0 1-71.698-30.002L436.799 30A101.7 101.7 0 0 0 364.592 0H101.7A101.7 101.7 0 0 0 0 101.7v711.895a152.55 152.55 0 0 0 152.55 152.55h915.294a152.55 152.55 0 0 0 152.549-152.55V305.098a152.55 152.55 0 0 0-152.55-152.549z"/>
  <path fill="#FF0" d="M152.55 152.55h915.294q152.549 0 152.549 152.548v508.497q0 152.55-152.55 152.55H152.55Q0 966.144 0 813.594V305.098Q0 152.55 152.55 152.55Z"/>
</svg>
