<svg class="icon" viewBox="0 0 1024 1024" xmlns="http://www.w3.org/2000/svg" width="200" height="200"><path d="M137.366 74.927h749.268V1024H137.366z" fill="#FF9800"/><path d="M212.293 149.854h599.414v799.22H212.293z" fill="#FFF"/><path d="M686.83 149.854h24.975l-24.976-74.927zM337.17 149.854h-24.975l24.976-74.927z" fill="#E65100"/><path d="M337.17 474.537h349.66v49.95H337.17zm0 99.902h349.66v49.951H337.17zm0 99.902h349.66v49.952H337.17z" fill="#2196F3"/><path d="M512 0a99.902 99.902 0 1 0 99.902 99.902A100.027 100.027 0 0 0 512 0z" fill="#9FA8DA"/><path d="M337.17 74.927v99.902a49.951 49.951 0 0 0 49.952 49.951h249.756a49.951 49.951 0 0 0 49.951-49.95V74.926z" fill="#9FA8DA"/></svg>