<svg class="icon" viewBox="0 0 1024 1024" xmlns="http://www.w3.org/2000/svg" width="200" height="200"><path d="M810.667 149.333H213.333c-23.466 0-42.666 19.2-42.666 42.667v128c0 23.467 19.2 42.667 42.666 42.667h597.334c23.466 0 42.666-19.2 42.666-42.667V192c0-23.467-19.2-42.667-42.666-42.667zm0 256H213.333c-23.466 0-42.666 19.2-42.666 42.667v128c0 23.467 19.2 42.667 42.666 42.667h597.334c23.466 0 42.666-19.2 42.666-42.667V448c0-23.467-19.2-42.667-42.666-42.667zm0 256H213.333c-23.466 0-42.666 19.2-42.666 42.667v128c0 23.467 19.2 42.667 42.666 42.667h597.334c23.466 0 42.666-19.2 42.666-42.667V704c0-23.467-19.2-42.667-42.666-42.667z" fill="#D1C4E9"/></svg>