<svg xmlns="http://www.w3.org/2000/svg" class="icon" viewBox="0 0 1024 1024">
  <path fill="#0B70DD" d="M512 1024a42.667 42.667 0 0 1-42.667-42.667V256a42.667 42.667 0 0 1 85.334 0v725.333A42.667 42.667 0 0 1 512 1024z"/>
  <path fill="#0B66B7" d="M512 213.333A42.667 42.667 0 0 0 469.333 256v181.333h85.334V256A42.667 42.667 0 0 0 512 213.333z"/>
  <path fill="#3395FF" d="M848.213 416H175.787A21.333 21.333 0 0 1 160 380.587L495.787 7.253a21.333 21.333 0 0 1 31.573 0l336.213 373.334A21.333 21.333 0 0 1 848.213 416z"/>
</svg>
